<svg xmlns="http://www.w3.org/2000/svg" viewBox="0 0 264.583 172.554" height="652.174" width="1000"><path d="M0 172.554h264.583V0H0z" fill="#d7b46a" fill-rule="evenodd"/><path d="M264.583 96.008c-3.313-1.398-8.015.16-8.627 6.44-.96-9.84-11.959-8.09-11.928-1.532.017 3.424 2.95 4.908 6.16 3.959-.707 6.55-9.602 5.178-9.69 1.195-.09 3.983-8.984 5.356-9.692-1.195 3.21.949 6.146-.535 6.16-3.96.032-6.556-10.968-8.307-11.927 1.532-.96-9.839-11.958-8.088-11.929-1.531.017 3.424 2.952 4.908 6.163 3.959-.708 6.55-9.604 5.178-9.692 1.195-.09 3.983-8.985 5.356-9.692-1.195 3.21.949 6.146-.535 6.162-3.96.03-6.556-10.969-8.307-11.929 1.532-.959-9.839-11.957-8.088-11.927-1.531.016 3.424 2.95 4.908 6.162 3.959-.708 6.55-9.603 5.178-9.693 1.195-.087 3.983-8.983 5.356-9.691-1.195 3.21.949 6.147-.535 6.163-3.96.03-6.556-10.97-8.307-11.929 1.532-.96-9.839-11.96-8.088-11.928-1.531.015 3.424 2.951 4.908 6.162 3.959-.707 6.55-9.603 5.178-9.692 1.195-.088 3.983-8.984 5.356-9.692-1.195 3.211.949 6.146-.535 6.162-3.96.03-6.556-10.968-8.307-11.928 1.532-.96-9.839-11.958-8.088-11.928-1.531.016 3.424 2.951 4.908 6.162 3.959-.708 6.55-9.603 5.178-9.692 1.195-.088 3.983-8.984 5.356-9.692-1.195 3.212.949 6.147-.535 6.162-3.96.03-6.556-10.968-8.307-11.928 1.532-.96-9.839-11.958-8.088-11.928-1.531.016 3.424 2.951 4.908 6.163 3.959-.708 6.55-9.604 5.178-9.692 1.195-.09 3.983-8.984 5.356-9.692-1.195 3.21.949 6.145-.535 6.161-3.96.03-6.556-10.968-8.307-11.927 1.532-.96-9.839-11.959-8.088-11.928-1.531.016 3.424 2.95 4.908 6.16 3.959-.706 6.55-9.602 5.178-9.69 1.195-.09 3.983-8.984 5.356-9.692-1.195 3.21.949 6.146-.535 6.161-3.96.032-6.556-10.968-8.307-11.927 1.532-.96-9.839-11.959-8.088-11.928-1.531.016 3.424 2.95 4.908 6.162 3.959-.709 6.55-9.604 5.178-9.692 1.195-.089 3.983-8.984 5.356-9.692-1.195 3.21.949 6.146-.535 6.162-3.96.03-6.556-10.969-8.307-11.928 1.532C8.015 96.168 3.314 94.61 0 96.008V0h264.583z" fill="#0a3566" fill-rule="evenodd"/><path d="M47.452 124.652h4.085l-.05-1.092H49.08l.404-2.093h2.002l.213-1.092h-2.002l.323-1.698h2.387l.435-1.102h-4.015zm6.714-.89c-.435 0-.586-.303-.586-.808 0-.769.445-2.295 1.102-2.295.404 0 .536.303.536.707 0 .728-.415 2.397-1.052 2.397zm1.537-3.427c-.182-.435-.526-.647-1.092-.647-1.314 0-2.386 1.658-2.386 3.205 0 1.102.576 1.86 1.739 1.86 1.436 0 2.346-1.203 2.78-3.427a8.898 8.898 0 0 0 .162-1.608c0-1.537-.768-2.265-2.72-2.265l-.192 1.052c1.244 0 1.78.212 1.78 1.132 0 .193-.02.415-.07.698zm5.329 3.953c-.162-.131-.193-.303-.142-.556l.758-3.903h-1.304l-.576 3.004c-.101.535-.395.859-.81.859-.404 0-.535-.304-.434-.86l.586-3.003h-1.294l-.627 3.206c-.222 1.162.375 1.729 1.274 1.729.698 0 1.143-.344 1.477-.87-.071.425.03.789.293.87zm1.637-4.459l-.93 4.823h1.295l.394-2.002h1.254l-.384 2.002h1.304l.93-4.823h-1.304l-.344 1.82H63.62l.354-1.82zm7.453 0l-.05.324c-.112-.273-.446-.465-.86-.465-1.113 0-2.063.98-2.356 2.518-.304 1.526.243 2.558 1.415 2.558.678 0 1.234-.415 1.416-.82-.07.425.03.749.283.83l.819-.486c-.162-.11-.192-.293-.142-.546l.759-3.913zm-1.456 3.994c-.567 0-.647-.677-.465-1.597.172-.91.525-1.547 1.082-1.547.455 0 .606.333.495.9l-.263 1.344c-.121.567-.384.9-.85.9zm6.47.83l.931-4.824h-2.103c-1.082 0-1.608.617-1.77 1.436-.121.627.082 1.112.567 1.254-.749.232-.86 1.213-1.446 1.213l-.06 1.032c1.85 0 1.698-1.84 2.405-1.84h.506l-.333 1.728zm-.788-2.68h-.515c-.284 0-.415-.172-.324-.597.07-.424.273-.606.566-.606h.506zm3.954 2.68h1.294l.587-3.044c.11-.546.384-.85.728-.85.364 0 .455.314.343.86l-.586 3.033h1.284l.586-3.033c.102-.566.375-.86.728-.86.364 0 .445.314.334.86l-.586 3.033h1.294l.627-3.215c.222-1.163-.213-1.75-1.102-1.75-.587 0-1.082.284-1.396.77-.1-.496-.475-.77-1.021-.77-.657 0-1.092.355-1.406.87.082-.424-.02-.788-.272-.87l-.81.476c.162.131.193.304.142.566zm9.13-.85c-.455 0-.606-.333-.495-.91l.252-1.314c.122-.577.395-.91.85-.91.556 0 .667.616.485 1.527-.182.91-.546 1.607-1.092 1.607zm-2.558 2.993h1.304l.466-2.396c.11.222.384.364.798.364 1.173 0 2.144-1.092 2.427-2.538.293-1.527-.242-2.538-1.436-2.538-.657 0-1.153.435-1.375.87.081-.425-.02-.79-.303-.87l-.84.485c.162.122.193.294.142.556zm8.757-6.967l-.051.324c-.111-.273-.445-.465-.86-.465-1.112 0-2.062.98-2.355 2.518-.304 1.526.242 2.558 1.415 2.558.678 0 1.234-.415 1.416-.82-.071.425.03.749.283.83l.819-.486c-.162-.11-.192-.293-.142-.546l.759-3.913zm-1.456 3.994c-.567 0-.648-.677-.466-1.597.172-.91.526-1.547 1.082-1.547.455 0 .607.333.496.9l-.263 1.344c-.121.567-.385.9-.85.9zm3.77-3.994l-.93 4.823h1.295l.394-2.002h1.254l-.384 2.002h1.304l.93-4.823h-1.304l-.344 1.82h-1.264l.354-1.82zm5.765 4.935c.93 0 1.486-.354 1.79-1.143l-.607-.677c-.112.526-.486.839-.94.839-.446 0-.678-.516-.466-1.567.202-1.062.587-1.547 1.082-1.547.475 0 .708.323.627.788l.85-.617c.01-.788-.466-1.152-1.386-1.152-1.274 0-2.235 1.031-2.528 2.528-.293 1.496.253 2.548 1.578 2.548zm2.164-.112h1.304l.586-3.013c.102-.556.395-.88.81-.88.404 0 .535.304.424.87l-.576 3.023h1.294l.627-3.255c.232-1.183-.344-1.71-1.244-1.71-.708 0-1.183.345-1.506.87.08-.424-.02-.788-.284-.87l-.808.476c.161.131.192.304.141.566zm6.582.112c1.496 0 2.649-1.517 2.649-3.287 0-1.102-.576-1.79-1.658-1.79-1.507 0-2.64 1.437-2.64 3.257 0 1.102.577 1.82 1.649 1.82zm.202-.981c-.364 0-.516-.313-.516-.799 0-1.132.466-2.305 1.173-2.305.334 0 .465.253.465.697 0 .648-.293 2.407-1.122 2.407zm4.813.02c-.455 0-.606-.334-.495-.91l.253-1.315c.12-.576.394-.91.85-.91.555 0 .666.617.484 1.527-.182.91-.546 1.608-1.092 1.608zm-2.558 2.992h1.305l.465-2.396c.111.223.384.364.798.364 1.173 0 2.144-1.092 2.427-2.538.293-1.527-.242-2.538-1.436-2.538-.657 0-1.152.435-1.375.87.081-.425-.02-.789-.303-.87l-.84.486c.163.121.193.293.142.556zm5.288-2.143h1.295l.586-3.044c.111-.545.384-.849.728-.849.364 0 .455.314.344.86l-.587 3.033h1.284l.587-3.033c.101-.566.374-.86.728-.86.364 0 .445.314.334.86l-.587 3.033h1.294l.627-3.215c.223-1.163-.212-1.75-1.102-1.75-.586 0-1.082.284-1.395.769-.101-.495-.475-.769-1.022-.769-.657 0-1.092.354-1.405.87.081-.425-.02-.789-.273-.87l-.809.476c.162.131.192.303.142.566zm7.907-4.823l-.93 4.823h1.294l.395-2.002h1.254l-.384 2.002h1.304l.93-4.823h-1.304l-.344 1.82h-1.264l.354-1.82zm7.452 0l-.05.324c-.111-.274-.445-.466-.86-.466-1.112 0-2.062.981-2.355 2.518-.304 1.527.242 2.558 1.415 2.558.678 0 1.234-.414 1.416-.819-.071.425.03.749.283.83l.819-.486c-.162-.111-.192-.293-.142-.546l.759-3.913zm-1.456 3.994c-.566 0-.647-.678-.465-1.598.172-.91.526-1.547 1.082-1.547.455 0 .607.334.496.9l-.263 1.345c-.121.566-.385.9-.85.9zm6.472.829l.93-4.823h-2.103c-1.082 0-1.608.617-1.77 1.436-.121.627.081 1.112.566 1.254-.748.232-.859 1.213-1.445 1.213l-.061 1.031c1.85 0 1.698-1.84 2.406-1.84h.506l-.334 1.729zm-.789-2.68h-.516c-.283 0-.414-.171-.323-.596.07-.425.273-.607.566-.607h.506zm4.874-2.143l-.93 4.823h1.294l.404-2.073h.253c.768 0-.212 2.184 1.84 2.184l.354-1.061c-.687 0-.263-1.416-1.132-1.669.9-.202.87-1.274 1.547-1.274l.07-1.072c-1.91 0-1.668 1.871-2.497 1.871h-.233l.334-1.729zm7.189 0l-.05.324c-.112-.274-.446-.466-.86-.466-1.112 0-2.063.981-2.356 2.518-.303 1.527.243 2.558 1.416 2.558.677 0 1.233-.414 1.415-.819-.07.425.03.749.283.83l.82-.486c-.162-.111-.193-.293-.142-.546l.758-3.913zm-1.456 3.994c-.566 0-.647-.678-.465-1.598.172-.91.526-1.547 1.082-1.547.455 0 .606.334.495.9l-.263 1.345c-.121.566-.384.9-.85.9zm4.995-.02c-.455 0-.607-.334-.496-.91l.253-1.315c.122-.576.395-.91.85-.91.556 0 .667.617.485 1.527-.182.91-.546 1.608-1.092 1.608zm-2.558 2.992h1.304l.465-2.396c.112.223.385.364.8.364 1.172 0 2.143-1.092 2.426-2.538.293-1.527-.243-2.538-1.436-2.538-.657 0-1.153.435-1.375.87.081-.425-.02-.789-.303-.87l-.84.486c.162.121.193.293.142.556zm5.288-2.143h1.294l.587-3.044c.11-.545.384-.849.728-.849.364 0 .455.314.343.86l-.586 3.033h1.284l.587-3.033c.1-.566.374-.86.727-.86.365 0 .445.314.334.86l-.586 3.033h1.294l.627-3.215c.223-1.163-.212-1.75-1.102-1.75-.587 0-1.082.284-1.396.769-.1-.495-.475-.769-1.02-.769-.658 0-1.093.354-1.406.87.08-.425-.02-.789-.273-.87l-.809.476c.162.131.192.303.142.566zm10.455-4.823l-.05.324c-.112-.274-.445-.466-.86-.466-1.112 0-2.063.981-2.356 2.518-.303 1.527.243 2.558 1.416 2.558.677 0 1.233-.414 1.415-.819-.07.425.03.749.284.83l.818-.486c-.161-.111-.192-.293-.141-.546l.758-3.913zm-1.456 3.994c-.566 0-.647-.678-.465-1.598.172-.91.526-1.547 1.082-1.547.455 0 .606.334.495.9l-.263 1.345c-.12.566-.384.9-.849.9zm14.388-2.973c0-.707-.465-1.163-1.456-1.163-1.263 0-2.265 1.072-2.548 2.548-.293 1.477.253 2.528 1.578 2.528.94 0 1.506-.354 1.8-1.132l-.617-.698c-.112.506-.395.86-.91.86-.637 0-.688-.708-.566-1.335v-.02c2.022-.012 2.72-.627 2.72-1.587zm-1.537-.263c.334 0 .456.132.456.384 0 .385-.334.617-1.436.627.252-.727.607-1.01.98-1.01zm3.357 4.176c.93 0 1.487-.354 1.79-1.142l-.607-.678c-.111.526-.485.84-.94.84-.445 0-.677-.516-.465-1.568.202-1.062.586-1.547 1.082-1.547.475 0 .707.324.627.789l.849-.617c.01-.789-.465-1.153-1.385-1.153-1.274 0-2.235 1.032-2.528 2.528-.293 1.497.253 2.548 1.577 2.548zm2.164-.111h1.304l.587-3.013c.101-.556.394-.88.809-.88.404 0 .536.304.425.87l-.577 3.023h1.295l.627-3.256c.232-1.183-.344-1.709-1.244-1.709-.708 0-1.183.344-1.507.87.08-.425-.02-.789-.283-.87l-.809.476c.162.131.192.303.142.566zm7.644-.546c-.354 1.304-.697 1.81-1.425 1.81-.445 0-.617-.243-.617-.556 0-.132.03-.233.05-.324l-1.102.212c-.04.102-.07.253-.07.425 0 .556.313 1.214 1.547 1.214 1.526 0 2.325-.971 2.69-2.831l.818-4.227h-1.304l-.577 3.003c-.1.536-.394.86-.809.86-.404 0-.535-.304-.434-.86l.586-3.003h-1.294l-.627 3.205c-.222 1.163.374 1.73 1.274 1.73.506 0 .96-.213 1.294-.658zm4.682-3.357c.394 0 .515.324.515.779 0 .94-.465 2.174-1.112 2.174-.374 0-.526-.354-.526-.86 0-.778.354-2.093 1.123-2.093zm2.234-3.377c-.222.172-.515.233-.9.233-2.042 0-3.124 1.092-3.67 3.913-.1.505-.142.94-.142 1.324 0 1.294.557 1.89 1.558 1.89 1.739 0 2.8-1.698 2.8-3.376 0-1.062-.485-1.638-1.355-1.638-.505 0-1.01.182-1.395.637.273-1.284.718-1.679 2.022-1.679.506 0 .789-.07 1.102-.283zm1.376 2.457c-.648 3.306-1.082 3.863-1.74 3.863l-.08 1.071c1.567 0 2.194-.93 2.871-3.963h.88l-.738 3.852h1.294l.94-4.823zm7.624 4.459c-.162-.131-.192-.303-.142-.556l.759-3.903h-1.305l-.576 3.003c-.101.536-.395.86-.81.86-.404 0-.535-.304-.434-.86l.587-3.003h-1.295l-.627 3.205c-.222 1.163.375 1.73 1.274 1.73.698 0 1.143-.345 1.477-.87-.071.424.03.788.293.87zm1.637-4.459l-.93 4.823h1.295l.404-2.073h.253c.768 0-.213 2.184 1.84 2.184l.354-1.061c-.687 0-.263-1.416-1.133-1.669.9-.202.87-1.274 1.548-1.274l.07-1.072c-1.91 0-1.668 1.871-2.497 1.871h-.233l.334-1.729zm7.827 4.459c-.162-.131-.192-.303-.142-.556l.759-3.903h-1.305l-.576 3.003c-.1.536-.394.86-.809.86-.404 0-.536-.304-.434-.86l.586-3.003h-1.294l-.627 3.205c-.223 1.163.374 1.73 1.274 1.73.697 0 1.142-.345 1.476-.87-.07.424.03.788.293.87zm-46.391.364h1.416l.515-2.639h.89c1.315 0 2.407-.789 2.68-2.184.263-1.365-.213-2.255-1.83-2.255h-2.296zm2.133-3.72l.445-2.286h.79c.575 0 .828.404.697 1.122-.142.728-.587 1.163-1.153 1.163zM29.7 136.798h2.758c1.84 0 2.708.792 2.452 2.094-.23 1.278-1.456 1.967-3.27 1.967h-2.733zm-3.219-10.294l-3.474 17.88h9.451c5.21 0 7.74-2.656 8.276-5.44.613-3.193-.843-5.67-6.105-5.67h-4.24l.613-3.143h8.583l1.532-3.627zm26.41 5.62l-.076.613c-.332-.613-1.456-.996-2.707-.996-3.73 0-6.922 2.503-7.689 6.462-.791 4.01 1.405 6.462 5.39 6.462 2.273 0 4.036-1.15 4.47-2.069-.179 1.175.332 1.967 1.303 2.095l2.937-1.482c-.562-.28-.715-.74-.588-1.38l1.89-9.705zm-3.728 9.425c-1.712 0-2.044-1.303-1.66-3.295.408-2.018 1.277-3.27 2.937-3.27 1.481 0 1.762.716 1.558 1.763l-.613 3.04c-.179 1.021-.74 1.762-2.222 1.762zm30.472 2.835l2.376-12.26H77.03l-1.762 8.99h-3.014l1.762-8.99h-4.98l-1.763 8.99h-3.014l1.762-8.99h-4.98l-2.376 12.26zm5.543-12.26l-2.401 12.26h4.955l.945-4.776h.843c2.503 0-.05 5.057 7.203 5.057l1.252-3.703c-2.07 0-1.788-2.504-4.317-3.321 2.478-.639 2.733-2.171 4.777-2.171l.23-3.73c-6.59 0-5.747 4.24-8.506 4.24h-.792l.766-3.856zm29.093 6.079c.766-4.01-1.481-6.462-5.951-6.462s-7.663 2.452-8.43 6.462c-.791 3.985 1.457 6.462 5.901 6.462s7.688-2.477 8.48-6.462zm-7.816 3.142c-1.507 0-1.864-1.073-1.456-3.142.383-1.992 1.099-3.193 2.682-3.193 1.61 0 1.839 1.2 1.456 3.193-.408 2.069-1.15 3.142-2.682 3.142zm16.45.127c-1.482 0-1.763-.817-1.559-1.864l.562-2.86c.205-1.048.767-1.814 2.248-1.814 1.686 0 2.044 1.2 1.66 3.192-.383 2.018-1.277 3.346-2.912 3.346zm-8.506 8.327h4.955l1.124-5.772c.306.357 1.175.638 2.503.638 3.96 0 7.229-2.656 7.944-6.436.792-3.985-1.38-6.488-5.44-6.488-2.248 0-3.807 1.277-4.292 2.222.23-1.175-.306-2.095-1.328-2.222l-3.117 1.481c.588.307.741.74.614 1.405zm17.726-5.415h4.956l1.43-7.407c.204-1.124.792-1.66 1.814-1.66 1.021 0 1.251.536 1.047 1.66l-1.43 7.407h4.954l1.43-7.407c.205-1.124.793-1.66 1.814-1.66 1.022 0 1.252.536 1.048 1.66l-1.43 7.407h4.955l1.558-8.122c.562-2.81-1.2-4.521-4.01-4.521-2.376 0-3.653.817-4.547 1.839-.511-1.124-1.788-1.84-3.601-1.84-2.248 0-3.525.869-4.522 2.223.23-1.175-.255-2.095-1.2-2.222l-2.937 1.456c.561.332.69.766.561 1.456zm38.34-6.181c.766-4.01-1.481-6.462-5.951-6.462s-7.663 2.452-8.43 6.462c-.791 3.985 1.456 6.462 5.9 6.462 4.445 0 7.69-2.477 8.48-6.462zm-7.816 3.142c-1.507 0-1.865-1.073-1.456-3.142.383-1.992 1.098-3.193 2.682-3.193 1.61 0 1.839 1.2 1.456 3.193-.409 2.069-1.15 3.142-2.682 3.142zm15.147 3.32c3.218 0 5.134-.664 6.079-2.886l-2.3-2.171c-.255 1.15-1.404 1.788-2.911 1.788-1.047 0-2.043-.69-1.533-3.219.486-2.58 1.456-3.193 2.785-3.193 1.609 0 2.4.716 2.247 1.635l3.091-1.966c-.076-2.223-1.788-2.912-5.006-2.912-4.368 0-7.535 2.528-8.276 6.436-.766 3.908 1.226 6.488 5.824 6.488zm7.228-.28h4.955l1.43-7.408c.205-1.124.793-1.66 1.814-1.66 1.022 0 1.252.536 1.048 1.66l-1.43 7.407h4.955l1.43-7.407c.204-1.124.792-1.66 1.814-1.66 1.021 0 1.251.536 1.047 1.66l-1.43 7.407h4.955l1.558-8.122c.562-2.81-1.2-4.521-4.01-4.521-2.376 0-3.653.817-4.547 1.839-.51-1.124-1.788-1.84-3.602-1.84-2.247 0-3.525.869-4.52 2.223.23-1.175-.256-2.095-1.201-2.222l-2.938 1.456c.562.332.69.766.562 1.456zm34.432-12.261l-.077.613c-.332-.613-1.456-.996-2.707-.996-3.73 0-6.922 2.503-7.689 6.462-.791 4.01 1.405 6.462 5.39 6.462 2.273 0 4.036-1.15 4.47-2.069-.179 1.175.332 1.967 1.302 2.095l2.938-1.482c-.562-.28-.715-.74-.588-1.379l1.89-9.706zm-3.73 9.425c-1.71 0-2.043-1.302-1.66-3.295.409-2.018 1.277-3.27 2.938-3.27 1.481 0 1.762.716 1.558 1.763l-.613 3.04c-.18 1.021-.741 1.762-2.222 1.762zm11.878-9.425l-2.375 12.26h4.955l.868-4.52h4.062l-.869 4.52h4.956l2.375-12.26h-4.955l-.843 4.265h-4.062l.843-4.265z" fill="#0a3566"/><g fill="#fff"><path d="M26.252 46.205l.094-.137.074-.079.227-.155.211-.086.284-.085.307-.065.248-.019-.284-.088-.2-.087-.275-.167-.215-.16-.196-.196-.166-.188-.06-.118-.027-.114.004-.127.04-.127.07-.105.13-.083.144-.053h.218l.09.023.097.087.1.144.04.157.034.162.179-.07.196-.135.13-.166.092-.232.018-.215-.057-.214-.14-.254-.213-.153-.218-.088-.022-.009.035-.284-.052-.272-.113-.192-.166-.158-.283-.122-.318.009-.192.057-.174.087-.096.061.144.101.183.228.052.201-.026.131-.122.14-.135.11-.161.07-.2-.031-.192-.153-.114-.228-.078-.232-.057-.288.061-.595.13-.373.17-.27-.252-.097-.305-.201-.335-.302-.2-.289-.097-.232-.087-.284.005-.237.095-.153.1-.092.153-.052.266-.004.17.091.109.128.043.18-.056.349h.252l.288-.096.183-.136.148-.201.044-.302.008-.17-.091-.215-.148-.193-.1-.092-.035-.013.148-.148.096-.267-.03-.329-.101-.21-.183-.2-.214-.093-.187-.026-.387.004.056.114.096.206.004.24-.07.136-.152.122-.161.07-.213.009-.158-.066-.091-.114-.074-.144-.026-.223.043-.364.03-.13.136-.298.274-.407.331-.302.114-.083-.17-.167-.196-.288-.135-.302-.105-.412.005-.459.082-.284.114-.136.156-.092.297.01.196.135.118.179v.219l-.061.144-.105.145-.074.113.266.088.387.004.236-.088.2-.17.105-.223.043-.132-.009-.35-.039-.122-.052-.079.196-.162.166-.162.1-.253-.009-.386-.057-.14-.13-.196-.222-.132-.262-.096-.065.005.022.206-.079.319-.187.131-.266.026-.253-.096-.16-.21-.018-.28.16-.28.315-.38.418-.285.353-.149.34-.087-.092-.25-.065-.315.022-.49.086-.332.18-.355.204-.245.2-.083.205.018.147.1.097.092.059.108.028.107-.013.166-.082.166-.21.158-.139.109.314.232.37.114.397-.092.296-.29.091-.296.005-.245.24-.01.274-.126.183-.18.104-.28-.017-.337-.087-.21-.127-.144-.209-.188-.082.175-.183.24-.157.088-.253-.026-.179-.114-.096-.145-.048-.197.075-.218.261-.245.366-.202.418-.13.462-.031.449.092.022-.307.104-.31.2-.408.332-.376.24-.166.248-.1.235.008.235.21.061.227-.048.236-.152.145-.183.083-.318.048.205.35.226.206.288.087h.309l.235-.087.231-.245.135-.263.253.114.392-.053.335-.28.11-.306-.01-.328-.06-.166-.096-.188-.083.087-.17.149-.183.092-.213-.018-.136-.092-.152-.206-.021-.14.004-.188.096-.17.24-.127.33-.061.506.004.357.092.47.227.175.118.183-.306.34-.35.366-.219.248-.118.152-.048h.497l.183.114.096.184-.004.245-.105.197-.135.118-.144.039-.218-.004-.252-.08.008.26.11.38.226.219.17.074.322.04.253-.044.2-.114.14-.11.148.167.27.087.27.005.279-.092.209-.205.096-.21.035-.267v-.206l-.161.048-.236.053-.235-.057-.14-.127-.078-.193.009-.258.091-.153.179-.118.336-.004.448.1.527.333.397.473.078.161.31-.218.387-.158.41-.083.497.026.305.097.213.14.087.214-.065.276-.157.179-.226.066-.218-.053-.14-.087-.165-.162-.148.271-.022.46.144.301.191.145.236.087h.37l.218-.057.1.25.183.214.292.105.349-.004.296-.14.213-.266.122-.272-.266.005-.244-.096-.16-.193-.014-.275.087-.202.223-.144.274-.004.322.197.327.337.231.363.152.38.04.412.353-.092.043-.004h.388l.431.096.571.324.178.206.07.174-.008.162-.14.188-.205.123-.209.026-.174-.056-.174-.189-.105-.275-.183.148-.187.241-.092.315.079.359.104.157.175.158.235.087.24.053.039.359.174.306.335.193.227.03.218-.03.231-.106.23-.174.057-.08-.174-.074-.13-.109-.127-.136-.035-.096.01-.17.112-.197.144-.127.14-.048.143-.014.153.075.161.18.161.253.122.328.053.477-.027.416-.087.359.405.091.37.176.323.258.227.253.165.272.054.183-.032.189-.1.188-.248.11-.197.025-.213-.091-.118-.167-.052-.192-.005-.245-.313.092-.292.249-.118.24v.42l.127.25.222.206.1.052-.087.223-.009.29.057.248.213.268.292.157.432-.008.279-.088-.131-.153-.087-.144-.026-.206.03-.149.105-.144.213-.131h.292l.244.258.061.275.004.451-.122.446-.191.368-.28.359.362.271.34.424.14.316.104.433-.035.358-.174.228-.205.079h-.157l-.165-.062-.179-.157-.06-.258.065-.25.096-.188h-.497l-.301.11-.248.302-.057.332.03.197.062.197.113.166-.235.258-.092.254.009.324.122.271.3.232.467.07-.018-.228v-.28l.13-.161.18-.083h.317l.232.188.078.258-.092.35-.196.376-.313.368-.331.231-.362.21.183.298.122.341.052.364-.013.385-.122.359-.152.236-.175.127h-.222l-.2-.11-.153-.175-.039-.184.074-.21.275-.293-.188-.118-.287-.074-.331-.008-.214.087-.183.188-.144.245-.013.324.01.18-.254.109-.253.21-.113.332-.004.338.157.244.305.237.148.078.035-.293.165-.227.183-.096.318.048.188.144.087.271-.061.181-.133.23-.211.193-.288.223-.727.364.387.043.344.075.205.065.266.162.23.236.297-.336.431-.547.151-.206.255-.372.2-.317.436-.783.209-.414.011-.029.216-.545.252-.638.194-.623.142-.525.132-.64.199-1.296.104-1.007.022-.87-.04-.946-.1-.87-.17-.976-.2-.784-.222-.74-.335-.905-.54-1.138-.34-.608-.393-.63-.513-.735-.528-.656-.54-.609-.802-.76-.989-.832-.932-.635-1.216-.695-1.098-.495-.932-.328-.98-.28-.798-.175-.823-.127-.616-.055-.646-.034-.725-.012-.49.003-.649.032-.831.102-.69.11-.922.209-.775.214-.936.346-1.068.477-.858.468-.521.329-.626.43-.707.534-.55.47-.48.455-.702.735-.295.353-.335.43-.307.416-.544.823-.21.354-.246.458-.208.435-.222.512-.248.651-.27.81-.276 1.107-.176.911-.075.615-.04.569-.024.76.01.783.032.468.059.635.11.784.15.716.19.713.28.815.436 1.058.557 1.107.311.543.486.707.624.752zm13.905 5.155l-.17-.019c.789.553 1.15.95 1.374 1.235.257.329.846 1.005 1.282.472.35-.428-.223-.927-.923-1.245-.614-.278-1.33-.401-1.563-.443" fill-rule="evenodd"/><path d="M44.736 49.534l-.56.995c-1.787-3.174-11.777-3.174-13.564 0l-.56-.995c3.213-3.588 11.47-3.588 14.684 0" fill-rule="evenodd"/><path d="M43.55 51.69l-.69 1.075c-.083-2.339-10.85-2.339-10.933 0l-.69-1.074c2.454-3.02 9.86-3.02 12.313 0m-4.186-5.695a.303.303 0 0 1 0 .604.303.303 0 0 1-.301-.274h-1.276v-.063h1.276a.303.303 0 0 1 .3-.267zm-3.8-1.029a.303.303 0 0 1 .278.421l1.132.637a.455.455 0 0 1 .11-.108l-.68-1.065a.303.303 0 1 1 .054-.032l.68 1.065a.438.438 0 0 1 .163-.046v-1.251a.303.303 0 1 1 .063 0v1.25a.448.448 0 0 1 .14.032l.635-1.066a.301.301 0 0 1 .175-.548.303.303 0 1 1-.12.579l-.634 1.062a.45.45 0 0 1 .149.14l1.077-.629a.303.303 0 1 1 .031.055l-1.077.628a.448.448 0 1 1-.847.242H35.62a.302.302 0 1 1-.002-.063h1.272a.44.44 0 0 1 .05-.192l-1.13-.635a.302.302 0 1 1-.247-.476m3.288-17.594l-.576 6.636m-1.82 5.957l.101.937m5.542.556l-.696.658m.557-.835l-.785.848m.67-.974l-.923.986m.67-1.163l-.885 1.037m.633-1.341l-.86 1.164m.759-1.38l-.886 1.266m.708-1.367l-.822 1.266m.506-1.506l-.835 1.367m.67-1.468l-.771 1.404m.607-1.53l-.67 1.34m.29-1.556l-.695 1.544m.544-1.683l-.608 1.544m.456-1.797l-.19.506m-.177.544l-.266.747m.405-1.847l-.101.379m-.253.721l-.228.734m.076-.797l-.202.734m-.279-1.177l-.227 1.025m.012-1.1l-.177 1.075m.013-1.19l-.152 1.177m-.304-1.076l-.1 1.063m-.127-1l-.026 1.013m-.114-1.012l-.012 1.012m-.165-.974l.013 1.012m-.911-.886l.164.924m-.329-.899l.165.912m-.595-.899l.266 1m-.48-1.013l.328 1.063m-.519-1.063l.405 1.114m-.582-.418l.279.595m-.468-.139l.215.215m-.355-.139l.215.215m7.49-2.796l-.392.595m.43-1.101l-.556.885m-6.719 1.38l.266.771M31.9 39.334l.785.986m-.95-.202l.583.595m-.57-.228l.367.354m-.683-.354l.506.456m-5.035-1.152l5.3 3.328m-5.326-3.809l5.656 3.77m-5.757-4.288l6.01 4.276m-6.06-4.783l6.047 4.568m-6.048-5.061l6.036 4.808m-4.948-5.706l2.139 2.062m-2.126-2.467l2.202 2.163m-2.088-2.707l2.227 2.379m-2.62-4.568l3.303 4.175m-3.075-4.63l3.43 4.58m-3.164-5.036l3.505 5.048m-3.277-5.529l3.656 5.53m-3.29-5.998l3.468 5.693M29.97 31.84l2.625 5.148m-2.318-5.477l2.534 5.352m-.318-1.42l.545 1.238m.273-1.568l.42 1.148m-3.137-5.167l1.697 3.83m1.697-.141l.218.478m.087-.652l.109.456m-.708-1.316l.13.304m-3.132-4.373l1.033 2.437m-.707-2.644l.968 2.426m-.794-2.643l.979 2.404m-.783-2.59l.914 2.405m-.664-2.491l.74 2.176m-.588-2.307l.686 2.002m-.38-2.165l.227.577m.164-.86l.217.74m1.741-.36l.392 2.7m-.022-2.808l.37 2.644m.01-2.72l.327 2.48m4.608-2.333l-.757 4.859m1.205-4.699l-.843 4.527m1.322-4.377l-.863 4.067m2.195-4.516l-1.15 4.174m1.672-3.96l-1.247 3.928m.384.096l1.31-3.724m-.884 3.66l1.311-3.36m-.927 3.478l1.31-3.158m-.436 3.596l.842-1.755m-.395 1.777l.757-1.413m-.352 1.509l.586-1.124m-1.705 4.302l2.857-4.44m-2.654 4.654l2.92-4.184m-2.792 4.58l3.112-4.141m-3.187 4.762l3.314-4.323m-3.324 4.805l3.548-4.26m-4.48 6.349l3.966-4.15m-3.791 4.294l3.916-3.916m-3.78 4.09l3.81-3.577m-3.385 3.974l4.467-3.578m-4.235 3.714l4.207-3.23m-3.907 3.317l3.878-2.737m-3.617 2.882l3.568-2.399m-3.433 2.602l3.346-2.08m-2.534 2.989l.387-.174m-.706.096l.88-.416m-.957.227l1.085-.532m-5.18-2.446l-.008-.06m.684 1.524l-.86 1.088m-3.67-2.088l.064.975M29.9 43.23l1.012.367m-1.366-.81l1.366.607m-.734.165l.772.24m5.822-16.536l.196 6.538m.348-6.582l.033 6.615m.424-6.593l-.163 6.702m.664-6.637l-.316 6.528m1.62 5.08l.057-.03.11-.01-.01.085-.156-.045z" fill-rule="evenodd"/><path d="M38.883 27.375l-.577 6.637-.063-.005.577-6.637zm-2.397 12.588l.102.936-.063.007-.101-.936.062-.007zm5.633 1.519l-.695.658-.044-.046.696-.658zm-.137-.179l-.785.848-.046-.043.785-.847zm-.114-.126l-.924.987-.046-.043.924-.987zm-.252-.178l-.886 1.037-.048-.04.886-1.038zm-.252-.305l-.86 1.163-.05-.037.86-1.164zm-.1-.216l-.886 1.265-.052-.036.886-1.265zm-.177-.102l-.823 1.265-.052-.034.822-1.266zm-.316-.242l-.835 1.367-.054-.033.835-1.366zm-.164-.102l-.772 1.404-.055-.03.772-1.404zm-.164-.128l-.67 1.341-.056-.028.67-1.34zm-.379-.216l-.695 1.544-.058-.026.696-1.544zm-.151-.14l-.607 1.543-.059-.023.608-1.543zm-.152-.254l-.19.506-.058-.022.19-.506zm-.366 1.05l-.266.746-.06-.02.266-.747zm.14-1.103l-.101.379-.061-.016.1-.38zm-.355 1.101l-.228.734-.06-.018.228-.734zm-.152-.064l-.202.734-.06-.017.202-.733zm-.48-.444l-.228 1.025-.061-.014.227-1.025zm-.215-.078l-.177 1.076-.062-.01.177-1.076.062.01zm-.164-.115l-.152 1.177-.062-.008.152-1.177.062.008zm-.456.1l-.1 1.063-.063-.006.101-1.063.062.006zm-.227.062l-.025 1.012-.063-.001.025-1.012zm-.14-.001l-.012 1.012h-.063l.013-1.013zm-.176.037l.012 1.013h-.062l-.013-1.012zm-.9.122l.165.923-.062.011-.164-.923zm-.164.025l.165.911-.062.011-.164-.911zm-.43.01l.265 1-.06.016-.266-1zm-.216-.014l.33 1.063-.06.019L35.4 40zm-.19 0l.405 1.113-.06.021-.404-1.113zm-.178.693l.278.594-.057.027-.278-.595zm-.196.446l.215.215-.045.045-.215-.215zm-.14.076l.216.215-.045.045-.215-.215zm7.71-2.541l-.392.594-.053-.034.392-.595zm.038-.507l-.557.886-.053-.034.557-.886zm-7.272 2.238l.266.772-.06.02-.265-.772zm-3.307-1.073l.784.987-.05.04-.783-.987zm-.167.783l.582.594-.045.044-.582-.594zm.012.366l.367.354-.044.046-.366-.355zm-.317 0l.506.454-.042.047-.506-.455zm-4.534-.7l5.301 3.328-.033.053-5.301-3.328zm-.024-.48l5.655 3.77-.035.052-5.655-3.77zm-.1-.518l6.009 4.276-.036.051-6.01-4.276zm-.05-.506l6.047 4.568-.038.05-6.048-4.568zm0-.493l6.035 4.808-.039.05-6.035-4.809zm1.09-.896l2.139 2.062-.044.045-2.138-2.062zm.013-.405l2.201 2.164-.043.044-2.202-2.163zm.115-.543l2.227 2.379-.046.043-2.227-2.38zm-.39-2.187l3.302 4.175-.05.04-3.302-4.176zm.227-.455l3.43 4.58-.05.038-3.43-4.58zm.267-.454l3.505 5.048-.052.036-3.505-5.049zm.228-.48l3.657 5.528-.053.035-3.656-5.529zm.368-.468l3.466 5.694-.053.032-3.467-5.693zm1.335-.052l2.625 5.147-.056.029-2.625-5.148zm.307-.329l2.534 5.352-.057.027-2.534-5.352zm2.217 3.932l.545 1.239-.058.025-.545-1.238zm.818-.327l.42 1.147-.058.022-.42-1.148zm-2.718-4.02l1.698 3.829-.058.025-1.697-3.83zm3.395 3.687l.217.479-.057.025-.218-.478zm.306-.168l.109.456-.061.015-.109-.457zm-.6-.865l.13.305-.057.024-.13-.304zm-3.003-4.068l1.034 2.437-.058.024-1.033-2.437zm.327-.207l.968 2.426-.058.023-.968-2.426zm.174-.218l.98 2.405-.06.023-.978-2.404zm.196-.184l.914 2.405-.059.022-.914-2.405zm.25-.086l.74 2.176-.059.02-.74-2.176zm.153-.13l.685 2.002-.06.02-.684-2.002zm.304-.165l.229.577-.059.023-.228-.577zm.393-.28l.217.74-.06.017-.217-.74zm1.959.385l.392 2.698-.063.01-.391-2.699zm.37-.109l.37 2.644-.062.008-.37-2.643.062-.01zm.38-.075l.327 2.48-.062.008-.327-2.48.063-.008zm4.935.155l-.757 4.859-.062-.01.757-4.858.062.01zm.447.162l-.841 4.527-.062-.012.842-4.527zm.48.15l-.863 4.067-.062-.013.863-4.066zm1.331-.447l-1.15 4.173-.061-.016 1.15-4.174zm.522.215l-1.247 3.928-.06-.02 1.247-3.927zm-.923 4.004l1.311-3.724.06.02-1.311 3.725zm.427-.065l1.31-3.36.06.022-1.311 3.36zm.384.117l1.31-3.157.059.024-1.31 3.157zm.875.437l.841-1.755.057.027-.842 1.755zm.448.02l.756-1.412.056.03-.757 1.412zm.405.097l.586-1.124.055.03-.586 1.123zm-1.118 3.176l2.856-4.441.053.034-2.856 4.441zm.203.213l2.92-4.185.052.036-2.92 4.185zm.129.395l3.111-4.142.05.038-3.111 4.142zm-.075.62l3.314-4.323.05.038-3.314 4.324zm-.01.481l3.55-4.26.047.04-3.548 4.26zm-.93 2.087l3.966-4.148.045.043-3.965 4.149zm.176.145l3.916-3.917.045.045-3.917 3.916zm.136.173l3.81-3.578.043.046-3.81 3.578zm.427.395l4.468-3.578.04.05-4.468 3.577zm.233.135l4.206-3.23.039.05-4.207 3.23zm.3.086l3.879-2.736.036.051-3.878 2.737zm.262.145l3.569-2.398.035.052-3.569 2.398zm.136.202l3.346-2.079.034.054-3.346 2.079zm.817.907l.386-.174.026.058-.387.174zm-.32-.077l.88-.415.027.056-.88.416zm-.078-.189l1.085-.532.028.057-1.085.532zm-4.113-2.945l-.008-.062.063-.008.008.061-.063.009zm.733 1.479l-.86 1.088-.05-.039.86-1.088zm-4.523-1.021l.063.974-.063.004-.063-.974zm-7.03 3.35l1.012.367-.021.06-1.013-.368zm-.353-.442l1.367.608-.025.057-1.367-.607zm.63.77l.771.241-.018.06-.772-.24zm6.616-16.265L37 33.802l-.063.002-.196-6.538zm.544-.043l.032 6.615h-.063l-.032-6.615zm.456.022l-.163 6.702-.063-.002.164-6.701h.062zm.5.066l-.315 6.528-.063-.003.316-6.528zm1.26 11.579l.061-.034.157-.014-.02.162-.265-.078zm.146.022l-.03.002.029.008.001-.011z"/><path d="M31.312 50.122l.458-.308.07.102-.335.226.096.142.165-.112a.398.398 0 0 1 .125-.06.214.214 0 0 1 .222.094.212.212 0 0 1 .04.128.2.2 0 0 1-.033.11.394.394 0 0 1-.106.096l-.289.194zm.468.426l.12-.08a.469.469 0 0 0 .077-.061.094.094 0 0 0 .024-.053.09.09 0 0 0-.016-.061c-.02-.028-.044-.042-.073-.042-.028 0-.067.018-.116.05l-.126.085zm1.39-.683l-.147.071-.131-.122-.265.13.018.177-.142.069-.065-.79.142-.069zm-.376-.142l-.211-.202.03.29zm.494-.693l.142-.046.19.585.203-.066-.19-.585.141-.046.19.585.21-.068-.19-.585.141-.046.23.703-.84.272zm1.413-.377l.148-.018.038.312c.033-.007.054-.019.064-.034a.527.527 0 0 0 .04-.12c.021-.083.046-.137.074-.16a.29.29 0 0 1 .145-.047c.004 0 .01 0 .022-.003l.013.11-.02.002a.156.156 0 0 0-.066.019.087.087 0 0 0-.03.038.757.757 0 0 0-.027.1.361.361 0 0 1-.02.067.157.157 0 0 1-.05.055c.033.005.063.02.088.046a.802.802 0 0 1 .085.111l.125.19-.174.02-.11-.178c-.003-.002-.006-.007-.011-.015l-.023-.032a.215.215 0 0 0-.055-.062.097.097 0 0 0-.058-.007l.04.321-.148.019-.09-.734zm.932.252a.469.469 0 0 1 .017-.192.346.346 0 0 1 .06-.107.287.287 0 0 1 .089-.075.408.408 0 0 1 .156-.043.348.348 0 0 1 .269.079.387.387 0 0 1 .122.271.387.387 0 0 1-.072.288.345.345 0 0 1-.25.123.35.35 0 0 1-.27-.077.381.381 0 0 1-.121-.267zm.152-.019c.008.083.033.145.075.184.042.04.093.057.152.052a.187.187 0 0 0 .14-.077c.034-.046.048-.111.04-.197-.007-.084-.031-.145-.071-.183a.19.19 0 0 0-.153-.05.188.188 0 0 0-.143.076c-.034.046-.047.11-.04.195zm1 .314v-.739h.238a.91.91 0 0 1 .178.011.194.194 0 0 1 .106.072.23.23 0 0 1 .043.144.242.242 0 0 1-.024.114.205.205 0 0 1-.14.108.846.846 0 0 1-.155.01h-.098v.28zm.148-.614v.21h.082a.397.397 0 0 0 .118-.012.1.1 0 0 0 .046-.037.1.1 0 0 0 .017-.057.095.095 0 0 0-.023-.066.103.103 0 0 0-.06-.033.761.761 0 0 0-.108-.005h-.072zm.992.628l.011-.614-.22-.004.003-.125.587.01-.002.126-.219-.004-.01.613-.15-.003zm.74-.314a.467.467 0 0 1 .044-.188.349.349 0 0 1 .073-.097.285.285 0 0 1 .1-.062.398.398 0 0 1 .16-.02.347.347 0 0 1 .255.114c.062.07.09.166.083.287a.386.386 0 0 1-.111.274.344.344 0 0 1-.265.087.35.35 0 0 1-.257-.114.382.382 0 0 1-.082-.281zm.153.003c-.004.083.012.148.048.193a.19.19 0 0 0 .144.072c.06.003.11-.016.15-.057.04-.04.062-.103.066-.189.005-.084-.01-.149-.045-.192a.188.188 0 0 0-.144-.07.19.19 0 0 0-.152.055c-.04.04-.062.103-.067.188zm1.442.249l.137.065a.323.323 0 0 1-.135.162.314.314 0 0 1-.202.031.319.319 0 0 1-.226-.133.388.388 0 0 1-.055-.285.406.406 0 0 1 .134-.27.327.327 0 0 1 .262-.067c.09.013.158.05.207.11a.29.29 0 0 1 .056.146l-.152.014a.154.154 0 0 0-.04-.098.155.155 0 0 0-.096-.047.171.171 0 0 0-.14.04c-.04.034-.065.095-.077.182-.013.093-.006.16.022.205a.16.16 0 0 0 .121.077.15.15 0 0 0 .106-.023.222.222 0 0 0 .078-.11zm.672.438l.18-.587-.21-.064.036-.12.562.172-.037.12-.209-.064-.18.587zm1.311.523l-.146-.072.016-.179-.266-.13-.128.125-.142-.07.582-.537.142.07zm-.119-.383l.029-.291-.21.202zm.43.579l.455-.582.118.092-.18.229.231.18.18-.23.117.092-.455.582-.118-.091.2-.255-.23-.18-.2.255zm-8.063-3.61c0-1.361.415-2.475 1.9-2.933 1.793-.554 3.635.455 3.667 2.94l5.207-1.431.373-1.553-.588-.73-2.71.075 2.251-.42-.047-.594-.264.001c-.503-.758-.66-.109-1.642-1.37l-.57-.813-.835-1.235 1.662-.997c.183.431-.308 1.043.004 1.424l-.396.075.073.971c.398-.19.986-.728.917-1.185-.221-1.48.22-1.946-.324-2.052-.553-.108-1.071.365-1.623.155-.027-.959-.227-1.035.2-1.14l.38-.704.098.094c-.42.828-.918.844-.53 1.253l.44-.455c.013.39-.235.235-.316.528l.034.046c1.212.087.874-.957 2.17-1.347l.058-.775.279-.02-.347-.438.336-.27-.006-.105-.852-.016-.536-.288c-.347-.18-.167-.401-.693-.203-.19.071-.377-.376-2.025.194-.417.144.008.304-.948.583-.174.641-.303.111-.859.7-.243-.27-.265-.748-.797-.417-.404-.313-.852.117-1.125-.61l-.889-.725.076-.015.042-.177.076-.007.004-.115.104-.02-.024-.263.129-.156h.175c-.017-.449-.41-.261-.17-.541l.1-.3c-.349-.102-.281.066-.997.354l-.332.519-.412.423-.239-.261-.199.03-.098-.055-.343-.83-.412-.914.047-.043v-.12l-.104-.07-.061-.676-.13.413-.12-.647-.077.208-.052-.215-.049.03-.002.17-.03.02-.05-.19-.06.007.165 1.07.131.083-.107 1.325c-1.418-.076.342 1.361-.049 1.87l-.215.179.283.064.119 1.107.15-.052-.17-1.144 1.265-.489.179.16-.595 1.079c.383-.065.626-.519.836-.811l.69.479-.34.09v-.031l-.08.036.016.197h.38c-1.083 1.25-.844.88-.426 1.532l.862-.056c-1.072.798-2.472.01-3.378 1.978-1.14.356-1.73-.824-1.922 1.454l.39-.014.03.04-.115.553.3.002.023.04.099-.009.103.1.17-.01.063-.1.209-.005.012-.244-.03-.02-.036-.383.119-.021c.274-.464-.087-.739.51-.986.167.237.008.77 1.017 1.683l-.893.82-.059.396.992 1.38.374.09-.02.358-2.269.281.056.825-1.289.025-.506.966 5.037 1.339zm-1.624-15.297l.402 1.199.119.033.32-.308v.112l-.418.292.445.334-.016.213-1.01.479c-.086-1.544-.588-.632-.462-1.66l.492.261zm3.758 11.464c-2.27-1.23-2.756-.657-1.824-2.109.322-.502.123-.34.251-.996.163-.092 1.467.138 2.707-.334l.49-.162.058.033.057.269c.901.24.419.483.874.567l.065-.054c-.054-.565-.212-.489-.44-1.01l1.042-.016c.413.636.658.485 1.75 1.528l1.023 1.245.435.066.05.151h.065l.002.104zm.455-5.565l-.128-.065.047.13.128.105m-1.963-4.901l-.005-.128.154-.101-.006.17.143-.016-.005-.175.047-.122.09-.096h.111l-.031.064-.042.037.036.064.127.005.006.122-.053.085-.053.069-.021.074-.064.053-.08.107-.1.005-.254-.218zm7.535 6.66v.68l.167-.132.08-.152-.02-.153-.06-.152-.056-.066zm-.067-3.352h.122l.376-.383v-.048l.19-.175-.005-.037.116-.106.027-.086-.18-.26-.033.014-.004-.147-.016-.08-.032-.015.032-.181.095-.117.175-.075.047.08.18.005.053.032.207-.016-.154-.17-.084-.144-.223-.015-.01-.096-.096-.027-.164-.032-.031-.111-.096-.08-.227-.085-.164-.053-.059-.075-.143-.074-.132.032-.095.032-.106-.037-.196-.032-.032-.005-.19-.048-.286.01-.222.005-.196.064-.228.101-.259.101-.217.08-.063.047h-.096l-.069.112-.2.192-.223.143-.238.112-.138.09-.11.106-.265.128-.17.064-.042.09.487.154.492.128-.296-.271.185.016.18.02.016-.11.143.095.059-.027.053-.17.088-.103.022-.1.072-.08.084.076.153.374.032-.27.097-.236.16-.235.037.43.27-.32.24-.198.263-.113.232-.063.26-.041-.21.104-.135.103.003.079.085-.05.253-.05.45-.026.189.04.071.067-.218.038-.173.05-.137.078-.079.088.003.095.122-.044.2-.054.142-.05-.16.116-.172.094.013.085.278-.16.288-.11.285-.028.125.063-.138.05-.144.025-.15.057-.119.037-.166.088-.1.117-.022.125-.072.142-.065.166-.025.148.05.044.11-.16.209-.293.04-.078.063.016-.022.144-.088.267.014.344.212-.404.074-.127.17-.08.057.005.004-.001-.036.234-.095.224-.11.239-.122.138-.207.218zM33.987 42.2l.144.088.103.061.14.165.12.097.116.104.188.091.158.049h.194l.018.17-.54.055-.09-.152-.122-.103-.115-.122-.14-.086-.157-.024-.128-.006-.11-.06-.058-.035-.011-.016-.015.014-.146-.122-.085-.073-.084-.006-.104-.17-.145-.245-.085-.152-.115-.177-.025-.042.219-.17.303-.104-.133.231-.055.195.073.195.188.104.182.018.236.116.116.079-.035.033zm9.443-.061v-.201l.077-.068.177-.125.064-.025.118.05.169.121.078.161zm-.064-.36l.07-.067.007-.062-.074-.027-.067-.015-.398-.373-.008-.057-.347-.32-.207-.244-.069-.106-.145-.307-.143-.217-.249-.295-.221-.16-.09-.062-.196-.198-.175-.218.008-.081.069.054.073.067.195.18.133.102.035.022-.05-.131-.103-.16-.24-.357-.09-.01-.355.18.022.075.249.276.468.545.197.266.112.197.139.204.197.17.232.26.165.223.197.359.069.052.15.037.17.027.088.069.104.102.046.042.032-.042zm-5.217-4.302l.31.24.123.276-.012.247-.082.181-.163.176-.181.112-.205.117-.274.07-.158.012.292-.146.275-.165.186-.24.018-.164-.164.176-.157.1-.21.07-.094-.006.198-.165.263-.24.106-.206-.024-.24-.047-.206zm.234 1.437l.532-.352.216-.006-.287.229-.215.1-.246.03zm1.967.252l.199.238.214.19.2.1.022-.053-.03-.023-.081-.104-.157-.183-.278-.294-.151-.005.062.135zm-.26-.251l.051-.097.263-.07.364-.092.243-.076-.046.07-.283.138-.187.046-.131.045-.157.026-.116.01zm-6.269 4.074l.231-.183.291.335-.285-.048zm1.736.012l.77-.08-.018-.066-.293-.145-.241-.056-.164.146zm-1.271-5.377l.206.123.233.287.206.25.117.345.016.138-.058.07.058.058-.01.42-.048.09-.053.191-.096.128-.016.202-.047.266-.069.377-.122.234-.296.319-.111.191-.048.101-.01.18.037.118.068.191-.127-.09-.138-.176-.015-.154.196-.372.037-.175-.302.319.069-.165.17-.309.163-.148.006.398.1-.159.058-.292-.005-.394-.106.059-.053.207-.095.016-.053-.26-.27-.282-.296-.26-.318-.192.334.048.317.186.26.298.036-.155-.026-.239-.116-.25-.26-.255-.333-.138-.275-.127-.318-.234-.154-.25-.01-.085.28.17.345.117.338.074.413.096-.074-.122-.11-.128-.25-.207-.116-.133-.111-.085.375.08.276.16.211.206.069.271v.473l.048.617.01.192.17-.235-.027-.201.164-.415.111-.298-.037-.303-.158-.382zm-1-.217l-.08.138.328.037h.17l-.27-.154zm-.557.18l.498-.218-.005-.064-.185-.01-.223.149zm2.938-.157l.017.158.105.106.076.176.076-.059-.07-.234-.087-.123zm.31-.041l.017.158.204.182.123-.023-.04-.141-.152-.176zm.327-.024l.116.153.036.076.11-.017-.035-.13-.081-.082-.112-.04zm.28-.064l.292.176-.018-.1-.192-.123zm.666-.041l.1.17.058-.123-.041-.047zm.204-.165l.035.176.094.03-.059-.158zm.28-.07l.006.252.106-.029-.035-.164zm-3.798.94l.328.08.26.233.132.425h-.085l-.063-.218-.132-.143-.16-.165zm1.14-.511l.17.293.187.211.199.252.093.2.006.299-.117-.194-.158-.211-.204-.293-.134-.235-.076-.205zm-1.558 3.022l.008.423.083-.368zm-.861 1.118v-.22l.17-.134.267-.182.236-.201.03-.201-.485.365-.388.189v.201zm2.05.652l.34.371.328-.03-.14-.098-.158-.073-.17-.091zm8.422-3.484l.03.107.01.066-.005.071.015.086.107-.005.035-.106-.015-.137-.061-.208-.015-.295-.01-.101.02-.183.02-.29.05-.472-.075-.066-.04-.127-.04-.081-.102-.02-.197.03-.723.138-.344.04-.293.03-.607.01-.1-.055.348-.102.005-.203-.05-.264-.061-.208-.096-.162-.127-.066.051.396-.076.335-.162-.137-.212-.132-.182-.04-.187-.026-.223.025-.075.036.212.172.298.26.122.222.015.178-.07-.081-.082-.066-.177-.015-.172-.026-.116-.116-.146-.214-.006.219.157.294.132.132.207.112.152.056.06.325.147.091.157.035.227-.02.359-.193.43-.269.364-.178h.04l.248-.09.197-.067.167-.015-.152.127-.212.106-.314.153-.151.07-.137.108-.1.09.014.046.187-.106.263-.127.162-.086.197-.138.233-.121.247-.086.046-.005.126.03.07.107v.213l-.01.386-.02.126.006.346.01.132zm-6.084-2.347l-.023-.1-.286-.322-.058-.194-.182.088-.122.153.601.387zM36 36.198l.555.37.093-.112-.374-.329zm1.992-.352l-.105.035-.1.088-.116.012-.14.07-.14.159-.048.146.123.159-.006-.212.146.153.117.041.012-.194.081.07.07.112.053-.011.041-.094.129.07.151.13.14.152-.642.029.1.1.163.094.105.1.105.158.152.14.164.13.263.275.11.153.06.153.028.234.158.059.163.105.2.112.244.182.129.111v-.27l-.058-.164-.129-.258-.21-.37-.17-.223-.186-.176-.258-.31-.227-.329-.27-.393zm.99-.096h.252l.29.17.213.226.006.151-.295-.22zm2.45.004l-2.824-.937-.007.118-.138.149-.3.254-.034.112.199-.061.293-.068.29-.048.378.028.367.105.205.077.058-.172 1.516.52zm2.084-1.114l.17.111.036.154.022.176.127-.005-.016-.224-.117-.175.006-.101.158.128.053.005-.021-.154-.106-.07-.185-.047.053-.085h-.064l-.2.064.004.127zm-6.067.055l.17-.151.163.295.176.063h.182l.145-.138.113.037-.27.346-.189.17-.22-.164-.226-.295zm.59-.107v.088l.114-.032zm-2.134-3.076l-.111.107.027.106.095-.032zm-.243.346l.148.037.111.074-.048.027-.153-.064zm-.069-.197l.106-.127-.032.116zm-.587.41l.026.116.122-.106.148-.133-.18.037zM33 30.778l.301.531.095.303.096.271.063.144.085.01.005.112-.238.223-.1-.064-.08-.212-.026-.245h.132l-.159-.318-.148-.357-.021-.196zm2.82 3.25l.114.097.234.023.298-.04.091.023-.063.091-.183.046-.389.115-.297.177-.207.183-.103.154-.068.143.526-.143-.108.15-.137.113-.155.08-.098.064.08.137.281.149.32-.029.035-.006.194-.166.206-.154.075-.04.091-.07.149-.016h.069l-.052.057-.12.063-.097.131-.08.16-.12.207-.195.045-.286.069-.24.034-.138.006.178.149.274-.08.298-.069.12-.08.143-.177.28-.189.327-.155.177-.125.051-.046h.16l.052.086-.068.023-.092.023-.058.074-.068.114-.023.075-.086.051-.234.023-.058.04-.045.012-.029.091.154.172.035.063.097.074.212.017.149-.154v-.092l.085.023.052-.046.252-.097.04-.132-.029-.131-.24-.35-.149-.08-.406-.589-.263-.223-.103-.04-.23-.24-.211-.24-.189-.218-.057-.092-.269-.234-.332-.195-.189-.08.018-.08-.018-.074-.137-.006-.029.074.092.115.2.154.24.166.138.154.034.058-.366-.206-.235-.149-.137-.114-.172-.075-.005.2-.178-.137-.177-.114-.212-.15-.114-.114-.217.115-.11.149.006.109.086-.012.2-.16h.098l.057.108-.234.16.085.144.092.017.051.086.103-.052.029-.274.074-.029-.011.275.103.097-.029.212-.051.091.04.138.395.24.251.126.286.103-.137-.143-.252-.143-.257-.103-.132-.115.344.069.257.097.36.097.235.086z" fill-rule="evenodd"/><path d="M34.427 41.922c.888-.543 1.782-.84 2.829-.839.567.001.971.033 1.517.195.606.18 1.311.515 1.8.919l.293.28-4.246.444-.81-.404-.393-.147c-.452-.249-.37.01-.99-.448" fill-rule="evenodd"/><g fill-rule="evenodd"><path d="M40.058 47.042c2.352-.908 4.528-1.684 7.084-1.537.423.025.937.158 1.247.452.891.845-.808 2.045-1.382 2.547 0 0-.203-.21-.205-.39.37.25 1.008-.58.758-.959-.461-.722-1.94-.767-2.677-.773-1.744-.013-3.147.289-4.825.66"/><path d="M40.207 47.083c1.461-.146 3.2-.215 4.653.039.508.088 2.133.52 2.263 1.131.08.376-1.362.968-1.658 1.087.274-.33.384-.533-.045-.986-.963-1.019-4.608-1.238-5.213-1.271m-5.582-.041c-2.352-.908-4.528-1.684-7.084-1.537-.423.025-.937.158-1.247.452-.89.845.809 2.045 1.383 2.547 0 0 .202-.21.204-.39-.37.25-1.008-.58-.757-.959.46-.722 1.939-.767 2.677-.773 1.743-.013 3.146.289 4.824.66"/><path d="M34.476 47.083c-1.462-.146-3.2-.215-4.653.039-.508.088-2.132.52-2.263 1.131-.08.376 1.363.968 1.658 1.087-.274-.33-.384-.533.045-.986.963-1.019 4.609-1.238 5.213-1.271"/></g><path d="M34.673 51.306l.17-.019c-.789.553-1.15.95-1.373 1.235-.258.329-.846 1.005-1.283.472-.35-.428.223-.927.923-1.245.614-.278 1.33-.401 1.563-.443" fill-rule="evenodd"/></g><path d="M235.241 38.254c-.151-.008-.246.03-.331.143-.208.276.2.442-.116 1.277-.147.388-.282.414-.503.636-.123.124-.161.218-.11.384.028.095.125.242.304.235.212-.009.447-.224.61-.4.188-.2.349-.504.44-.802.11-.364.126-.884-.015-1.218-.043-.1-.095-.244-.28-.255zm-4.526 4.722c-.59-.19-1.176-.326-1.8-.208a2.86 2.86 0 0 0-.078.205l-.043.141c.653-.005.95.031 1.226.065.177.023.346.043.589.05.244.005.287-.11.283-.198 0-.003-.16-.05-.177-.055zM226.9 41.79c.124-.017.499-.204.874-.414a8.76 8.76 0 0 0 .77-.475l-.58-.896c-.49.23-1.878.906-2.063 1.278-.05.255-.443 2.303-.507 2.793-.066.506-.303.858-.53 1.197l-.055.082c1.156 1.109 1.584 1.104 1.868.814.092-.095.18-.222.272-.354.147-.215.303-.44.529-.61.33-.246.527-.89.73-1.555.19-.618.384-1.253.716-1.679.205-.261.448-.366.713-.546.376-.257.693-.583.871-.881a.957.957 0 0 0 .144-.363c.02-.17-.086-.215-.236-.234-.152-.017-.677.44-1.065.777a7.956 7.956 0 0 1-1.39.985c-.41.229-.835.434-1.006.46zm.55-6.395h12.84c.353 0 .674.145.907.378.233.233.378.554.378.908v7.58c0 .354-.145.676-.378.908a1.283 1.283 0 0 1-.908.378h-12.628c-.154.13-.28.312-.398.485-.1.145-.198.286-.314.404-.447.456-1.048.526-2.519-.917l-.11-.108.227-.35c.203-.303.414-.617.469-1.035.065-.501.512-2.827.513-2.834.07-.242.436-.499.635-.634v-3.877c0-.354.145-.676.377-.908.233-.233.555-.378.908-.378zm.568 9.769h12.271a.9.9 0 0 0 .903-.903v-7.58a.9.9 0 0 0-.265-.638.9.9 0 0 0-.638-.265h-12.84a.901.901 0 0 0-.902.903v3.636c.46-.273.959-.518 1.229-.645a.57.57 0 0 1 .235-.641l3.727-2.416a.57.57 0 0 1 .788.167l1.427 2.202a.57.57 0 0 1-.146.77c-.306.307-1.919 1.297-2.975 1.949.17.073.338.153.48.235.308.174.514.377.466.595-.06.27-.208.472-.488.522.023.241-.062.573-.693.555a6.223 6.223 0 0 1-.626-.051c-.285-.035-.594-.074-1.317-.061l-.081.262c-.16.526-.318 1.038-.555 1.404zm2.415-3.215c-.155.097-.284.178-.376.238a.573.573 0 0 1-.687-.051c-.052.023-.111.147-.124.17.638-.009 1.218.183 1.57.3.092.03.167.054.213.066l.006.002.014.003h.003l.001.001h.007l.001.001h.006l.003.001h.006l.003.001h.003a.384.384 0 0 0 .198-.023c.048-.026.091-.086.118-.209.003-.014-.116-.087-.281-.18a5.789 5.789 0 0 0-.692-.32zm1.514-5.015l-3.728 2.416a.19.19 0 0 0-.056.26l.68 1.049.258-.222c.443-.386 1.042-.908 1.361-.869.364.045.612.267.57.655a1.318 1.318 0 0 1-.196.517c-.237.393-.676.827-1.187 1.128.044.026.144.035.188.006l3.74-2.423a.189.189 0 0 0 .06-.253l-1.43-2.208a.19.19 0 0 0-.26-.055zm7.56.692c-.128-.006-.286.068-.332.227-.02.066.017.38.026.442.23 1.562-.265 3.324-1.283 4.525-.196.23-.383.418-.587.622-.124.124-.207.201-.152.396.033.118.132.27.338.262.279-.012.961-.853 1.206-1.175.39-.51.697-1.134.908-1.798.309-.98.46-2.226.21-3.225-.034-.137-.116-.267-.334-.276zm-1.453.218c-.545-.037-.267.707-.27 1.21-.01 1.067-.362 2.13-1.094 2.924-.076.083-.156.168-.234.25-.073.078-.18.167-.247.254-.159.205.009.557.287.536.304-.023.77-.595 1.008-.92a5.025 5.025 0 0 0 .926-3.714c-.035-.233-.031-.517-.376-.54zm-1.499.212c-.452.075-.27.472-.256.91.06 1.793-1.184 2.28-1.172 2.624.006.162.114.373.36.364.225-.009.652-.49.793-.679a3.624 3.624 0 0 0 .728-2.338c-.006-.185-.04-.64-.165-.77-.068-.071-.191-.127-.288-.111" fill="#fff" fill-rule="evenodd"/><path d="M194.453 35.395L169.507 80.75h13.219l4.405-9.2h14.514l.777 9.2h14.709l-7.452-45.355zm-31.407 19.568l9.196-.002-3.498 6.42-6.941.003-3.749 19.366h-13.282l4.991-25.787h4.31l-1.959-19.568h37.495l-5.06 9.2h-19.497zM72.398 35.395L47.452 80.75h13.219l4.406-9.2H79.59l.777 9.2h12.19c6.01 0 11.853-1.16 16.535-5.524 5.893-5.494 9.283-15.341 12.808-30.63h9.784l-6.998 36.154h13.347l4.992-25.787h-4.31l9.534-19.568h-37.17c-5.35 27.399-9.097 34.648-17.75 34.72l-5.704-34.72zm4.99 11.468l1.425 15.81h-9.266zm122.054 0l1.426 15.81h-9.266z" fill="#fff"/></svg>